Coordinates
version=1
nRows=32
nColumns=12
inDegrees=yes

Units are S.I. units (second, meters, Newtons, ...)
Angles are in degrees

endheader
time	SC_y	SC_z	SC_x	AC_y	AC_z	AC_x	GH_y	GH_z	GH_yy	EL_x	PS_y
       0.0              -11.92          24.07          51.09          62.37          7.578         -17.88          103.1          4.971         -1.491          65.86          22.63
   0.04323              -11.92          24.07          51.09          62.37          7.576         -17.87          103.1           4.98         -1.499          65.85          22.63
   0.08647              -11.93          24.07          51.09          62.36          7.573         -17.87          103.0          4.989         -1.507          65.85          22.63
    0.1297              -11.93          24.07          51.09          62.36          7.571         -17.86          103.0            5.0         -1.516          65.84          22.63
    0.1729              -11.94          24.06           51.1          62.36          7.568         -17.86          103.0          5.011         -1.525          65.84          22.64
    0.2162              -11.95          24.06           51.1          62.35          7.565         -17.85          102.9          5.022         -1.534          65.83          22.64
    0.2594              -11.95          24.06           51.1          62.35          7.562         -17.84          102.9          5.035         -1.545          65.83          22.64
    0.3026              -11.96          24.06          51.11          62.34          7.559         -17.84          102.8          5.048         -1.556          65.82          22.64
    0.3459              -11.97          24.06          51.11          62.34          7.555         -17.83          102.8          5.062         -1.568          65.81          22.65
    0.3891              -11.97          24.06          51.11          62.34          7.552         -17.82          102.7          5.077          -1.58          65.81          22.65
    0.4323              -11.98          24.06          51.12          62.33          7.548         -17.81          102.6          5.094         -1.594           65.8          22.65
    0.4756              -11.99          24.06          51.12          62.32          7.543          -17.8          102.6          5.111         -1.609          65.79          22.66
    0.5188               -12.0          24.05          51.13          62.32          7.539         -17.79          102.5           5.13         -1.625          65.78          22.66
     0.562              -12.01          24.05          51.13          62.31          7.533         -17.78          102.4          5.151         -1.642          65.77          22.67
    0.6053              -12.03          24.05          51.14          62.31          7.528         -17.77          102.4          5.173          -1.66          65.76          22.67
    0.6485              -12.04          24.05          51.15           62.3          7.522         -17.76          102.3          5.197          -1.68          65.75          22.68
    0.6917              -12.05          24.05          51.15          62.29          7.516         -17.74          102.2          5.223         -1.702          65.73          22.69
     0.735              -12.07          24.04          51.16          62.28          7.509         -17.73          102.1          5.252         -1.726          65.72          22.69
    0.7782              -12.08          24.04          51.17          62.27          7.501         -17.71          101.9          5.283         -1.752          65.71           22.7
    0.8214               -12.1          24.04          51.18          62.26          7.493         -17.69          101.8          5.317          -1.78          65.69          22.71
    0.8647              -12.12          24.04          51.19          62.25          7.483         -17.68          101.7          5.354         -1.811          65.67          22.72
    0.9079              -12.14          24.03           51.2          62.24          7.473         -17.65          101.5          5.395         -1.846          65.65          22.73
    0.9511              -12.17          24.03          51.21          62.22          7.462         -17.63          101.4          5.441         -1.884          65.63          22.74
    0.9943              -12.19          24.03          51.22          62.21           7.45          -17.6          101.2          5.491         -1.926           65.6          22.75
     1.038              -12.22          24.02          51.24          62.19          7.436         -17.57          101.0          5.547         -1.973          65.58          22.76
     1.081              -12.26          24.02          51.25          62.17          7.421         -17.54          100.7           5.61         -2.025          65.55          22.78
     1.124              -12.29          24.01          51.27          62.15          7.403          -17.5          100.5           5.68         -2.083          65.51          22.79
     1.167              -12.33           24.0          51.29          62.13          7.384         -17.46          100.2          5.759         -2.149          65.47          22.81
     1.211              -12.38           24.0          51.31           62.1          7.362         -17.42          99.86          5.848         -2.223          65.43          22.83
     1.254              -12.43          23.99          51.34          62.07          7.337         -17.36          99.49          5.949         -2.307          65.38          22.85
     1.297               -12.5          23.98          51.37          62.03          7.309          -17.3          99.06          6.064         -2.404          65.32          22.88
      1.34              -12.57          23.97           51.4          61.99          7.276         -17.23          98.57          6.196         -2.514          65.26          22.91
